# xmcd
#
# Track frame offsets:
#  150
#  33552
#  55757
#  92887
#  122143
#  146223
#  176913
#  193215
#  211049
#  228379
#  252602
#
# Disc length: 3770 seconds
#
# Revision: 0
# Processed by: cddbd v1.5.2PL0 Copyright (c) Steve Scherf et al.
# Submitted via: Collectorz.com_Music_Collector 6.11
#
DISCID=a90eb80b
DTITLE=Eric Clapton - Revolution (2CDs) [CD1)
DYEAR=2007
DGENRE=Blues
TTITLE0=Pretending
TTITLE1=So Tired
TTITLE2=Got To Get Better In A Little While
TTITLE3=Run Home To Me
TTITLE4=Revolution
TTITLE5=Let It Rain
TTITLE6=Back Home
TTITLE7=I'm Yours
TTITLE8=Nobody Knows You When You're Down And Out
TTITLE9=Milkcow Blues
TTITLE10=Running On Faith
EXTD=
EXTT0=
EXTT1=
EXTT2=
EXTT3=
EXTT4=
EXTT5=
EXTT6=
EXTT7=
EXTT8=
EXTT9=
EXTT10=
PLAYORDER=
